<?xml version="1.0" standalone="no"?>
<!DOCTYPE svg PUBLIC "-//W3C//DTD SVG 20010904//EN"
 "http://www.w3.org/TR/2001/REC-SVG-20010904/DTD/svg10.dtd">
<svg version="1.0" xmlns="http://www.w3.org/2000/svg"
 width="500.000000pt" height="500.000000pt" viewBox="0 0 500.000000 500.000000"
 preserveAspectRatio="xMidYMid meet">
<metadata>
Created by potrace 1.14, written by Peter Selinger 2001-2017
</metadata>
<g transform="translate(0.000000,500.000000) scale(0.100000,-0.100000)"
fill="#000000" stroke="none">
<path d="M2295 4962 c-2 -3 -17 -6 -32 -7 -47 -5 -147 -17 -168 -21 -10 -2
-35 -6 -55 -9 -29 -4 -174 -42 -315 -81 -11 -3 -26 -6 -32 -6 -7 -1 -13 -5
-13 -10 0 -4 -6 -8 -14 -8 -37 0 -329 -138 -438 -207 -21 -12 -42 -23 -48 -23
-5 0 -10 -3 -10 -7 0 -5 -23 -21 -50 -38 -27 -16 -50 -33 -50 -37 0 -5 -6 -8
-14 -8 -8 0 -16 -4 -18 -8 -1 -4 -25 -25 -53 -46 -130 -98 -290 -255 -390
-381 -22 -27 -48 -59 -58 -70 -22 -24 -135 -193 -171 -255 -126 -217 -250
-545 -282 -746 -3 -21 -8 -42 -10 -46 -3 -4 -7 -29 -9 -55 -3 -26 -7 -59 -10
-73 -19 -98 -25 -379 -12 -535 9 -98 29 -222 52 -325 8 -36 18 -78 21 -93 5
-28 60 -193 102 -305 10 -29 24 -58 31 -65 6 -6 11 -17 11 -24 0 -13 26 -64
103 -203 38 -68 143 -225 200 -297 58 -75 275 -298 343 -353 30 -25 67 -55 82
-68 33 -28 231 -161 287 -193 96 -53 257 -129 348 -163 113 -42 321 -104 375
-111 20 -2 48 -7 62 -10 13 -2 40 -7 60 -10 20 -3 47 -8 60 -10 81 -16 393
-25 428 -13 13 4 21 5 19 0 -3 -4 11 -6 31 -5 21 1 37 2 37 3 0 1 33 6 105 14
64 7 125 16 150 21 24 5 75 17 130 29 82 18 156 41 162 50 4 6 8 8 8 4 0 -24
401 149 492 213 14 11 29 19 32 19 8 0 87 51 104 68 8 6 23 17 35 23 11 7 26
15 31 20 202 157 271 220 403 367 19 20 66 80 106 132 40 52 74 97 77 100 10
10 80 120 80 126 0 3 9 18 19 33 24 33 124 234 142 283 7 21 17 38 22 38 4 0
6 4 3 8 -2 4 4 28 15 52 11 24 21 51 22 59 1 9 5 21 9 26 3 6 9 26 13 45 4 19
10 40 13 45 4 6 7 15 9 20 1 6 4 19 7 30 9 39 38 170 42 195 2 14 6 34 8 45 5
21 15 104 20 166 2 20 5 40 7 45 6 13 3 297 -4 389 -6 75 -24 205 -34 250 -2
11 -6 31 -8 45 -9 60 -72 283 -95 335 -4 11 -16 40 -25 65 -32 87 -115 261
-128 271 -5 3 -8 9 -8 13 5 25 -214 346 -294 431 -141 151 -216 223 -310 298
-125 100 -162 127 -173 127 -6 0 -12 4 -14 9 -5 14 -186 119 -293 171 -137 66
-325 137 -440 165 -68 17 -268 56 -310 60 -27 3 -72 8 -100 11 -58 7 -424 11
-430 6z m25 -1406 c182 -10 256 -17 445 -41 37 -5 180 -27 200 -31 11 -2 31
-6 45 -9 14 -3 35 -7 48 -10 12 -3 32 -7 45 -10 12 -3 33 -7 47 -10 14 -3 59
-14 100 -25 41 -12 82 -22 90 -24 29 -8 235 -78 265 -91 17 -7 50 -21 75 -31
81 -34 284 -137 320 -163 77 -57 102 -104 96 -182 -8 -124 -90 -203 -206 -202
-53 0 -118 25 -220 83 -14 8 -27 15 -30 15 -3 1 -32 14 -65 29 -134 61 -360
139 -465 161 -8 2 -37 9 -65 15 -27 6 -59 13 -70 16 -11 2 -33 7 -50 10 -16 4
-39 8 -50 10 -11 1 -33 5 -50 8 -350 63 -869 77 -1159 32 -17 -3 -60 -8 -96
-12 -36 -3 -68 -8 -71 -10 -4 -2 -24 -6 -45 -10 -22 -3 -68 -12 -104 -20 -36
-9 -74 -17 -85 -19 -11 -2 -45 -10 -75 -17 -101 -26 -167 -12 -225 47 -92 92
-83 243 19 316 32 24 117 58 148 59 4 1 26 7 48 15 22 8 40 12 40 10 0 -2 15
1 33 6 17 5 48 12 67 15 19 3 42 7 50 9 8 2 34 7 57 10 23 3 57 8 75 11 95 14
284 32 406 38 41 2 75 6 77 8 5 5 203 1 335 -6z m25 -780 c103 -8 136 -12 185
-20 19 -3 53 -8 75 -10 22 -2 51 -7 65 -10 14 -3 39 -7 55 -10 48 -7 174 -36
249 -58 38 -11 76 -21 85 -23 109 -22 519 -202 616 -269 105 -74 132 -163 80
-259 -18 -34 -64 -69 -97 -74 -10 -2 -28 -5 -40 -7 -31 -4 -72 11 -229 87
-198 96 -318 144 -439 178 -25 7 -51 17 -58 22 -7 5 -15 7 -18 4 -4 -3 -23 0
-43 8 -20 8 -49 16 -66 18 -16 3 -48 9 -70 15 -22 6 -53 13 -70 16 -62 10
-121 19 -150 22 -16 2 -55 7 -85 10 -79 10 -471 10 -565 1 -123 -13 -209 -25
-250 -33 -11 -3 -54 -11 -95 -19 -41 -8 -85 -17 -98 -20 -13 -2 -32 -7 -42
-10 -76 -24 -140 -26 -184 -4 -140 68 -141 246 -1 316 35 18 99 38 107 33 2
-1 17 4 33 10 39 15 208 51 305 64 83 12 109 15 185 21 44 4 81 8 82 9 6 5
396 -2 478 -8z m-30 -730 c61 -3 110 -5 110 -6 0 -3 35 -8 87 -14 29 -3 89
-12 133 -21 44 -9 89 -18 100 -19 11 -2 27 -5 35 -8 14 -5 99 -30 110 -33 28
-6 157 -49 165 -55 6 -5 13 -9 17 -9 45 -7 322 -149 369 -189 44 -38 70 -86
64 -118 -2 -10 -4 -25 -4 -31 -2 -27 -72 -91 -109 -100 -44 -11 -85 3 -187 62
-61 36 -278 134 -309 139 -6 1 -45 12 -86 25 -93 28 -138 40 -170 45 -14 3
-48 9 -76 15 -50 10 -66 12 -209 28 -136 15 -513 7 -650 -13 -22 -3 -49 -7
-60 -9 -68 -9 -122 -19 -210 -37 -55 -12 -119 -23 -141 -24 -47 -3 -102 21
-118 51 -6 11 -13 22 -16 25 -16 16 -16 111 0 136 26 41 92 70 205 90 17 2 37
7 46 10 10 2 31 6 48 9 17 2 39 6 50 10 10 3 38 8 62 11 24 3 58 7 74 9 86 12
129 16 225 21 58 3 106 7 107 7 2 3 221 -2 338 -7z"/>
</g>
</svg>
